<svg width="200" height="23" viewBox="0 0 200 23" fill="none" xmlns="http://www.w3.org/2000/svg">
<path d="M 11.8301 22.7273 C 9.6673 22.7273 7.6792 22.2426 5.8659 21.2733 C 4.0744 20.3039 2.6435 18.9552 1.573 17.2272 C 0.5243 15.4782 0 13.5184 0 11.3479 
C 0 9.1773 0.5243 7.228 1.573 5.5001 C 2.6435 3.7721 4.0744 2.4234 5.8659 1.454 C 7.6792 0.4847 9.6673 0 11.8301 0 C 13.993 0 15.9701 0.4847 17.7616 1.454 C 19.5749 2.4234 20.9949 3.7721 22.0217 5.5001 C 23.0704 7.228 23.5947 9.1773 23.5947 11.3479 C 23.5947 13.5184 23.0704 15.4782 22.0217 17.2272 C 20.9731 18.9552 19.553 20.3039 17.7616 21.2733 C 15.9701 22.2426 13.993 22.7273 11.8301 22.7273 Z 
M 11.8301 17.7962 C 13.6653 17.7962 15.129 17.2061 16.2214 16.026 C 17.3356 14.846 17.8926 13.2866 17.8926 11.3479 C 17.8926 9.3881 17.3356 7.8287 16.2214 6.6696 
C 15.129 5.4895 13.6653 4.8995 11.8301 4.8995 C 9.9731 4.8995 8.4876 5.479 7.3734 6.638 C 6.281 7.797 5.7348 9.3669 5.7348 11.3479 
C 5.7348 13.3076 6.281 14.8776 7.3734 16.0577 C 8.4876 17.2167 9.9731 17.7962 11.8301 17.7962 Z" fill="white"/>
<path d="M 37.3173 22.7273 H 41.0696 V 3.7013 H 49.7593 V 0 H 28.5947 V 3.7013 H 37.3173 V 22.7273 Z" fill="white"/>
<path d="M 63.4819 22.7273 H 67.2342 V 3.7013 H 75.9239 V 0 H 54.7593 V 3.7013 H 63.4819 V 22.7273 Z" fill="white"/>
<path d="M 80.9059 22.7273 H 95.4216 V 19.026 H 84.6582 V 13.2143 H 95.4216 V 9.513 H 84.6582 V 3.7013 H 95.4216 V 0 H 80.9239 V 22.7273 Z" fill="white"/>
<path d="M 100.4216 22.7273 H 104.1736 V 15.5844 H 107.1073 L 113.1926 22.7273 L 116.9446 22.7273 L 110.6073 15.5844 C 113.6206 15.5844 116.9446 12.3052 116.9446 7.7922 C 116.9446 3.3117 113.6206 0 109.0126 0 H 100.4216 V 22.7273 Z
M 104.1736 11.8831 V 3.7013 H 109.0126 C 111.4486 3.7013 113.1926 5.4221 113.1926 7.7922 C 113.1926 10.1623 111.4486 11.8831 109.0126 11.8831 H 104.1736 z" fill="white"/>
<path d="M 130.9237 22.7273 C 129.2418 22.7273 127.734 22.4639 126.4014 21.9371 C 125.0687 21.4102 123.9983 20.6305 123.1901 19.5979 
C 122.4035 18.5654 121.9881 17.3221 121.9446 15.868 H 127.9086 C 127.9962 16.6899 128.291 17.3221 128.7939 17.7646 C 129.2963 18.1861 129.9514 18.3968 130.7601 18.3968 
C 131.5903 18.3968 132.2453 18.2176 132.7262 17.8594 C 133.2066 17.4801 133.4473 16.9638 133.4473 16.3106 C 133.4473 15.7626 133.2507 15.3096 132.8573 14.9513 
C 132.486 14.5931 132.0161 14.2981 131.4481 14.0663 C 130.9017 13.8345 130.1155 13.571 129.0886 13.276 C 127.6029 12.8335 126.3904 12.3909 125.4511 11.9484 
C 124.5117 11.5059 123.7036 10.8526 123.026 9.9886 C 122.3489 9.1246 122.0101 7.9972 122.0101 6.6064 C 122.0101 4.5412 122.7858 2.9292 124.3371 1.7701 
C 125.8879 0.59 127.9086 0 130.3993 0 C 132.9339 0 134.9761 0.59 136.5275 1.7701 C 138.0788 2.9292 138.909 4.5518 139.0181 6.638 H 132.9554 
C 132.9119 5.9215 132.6387 5.3631 132.1362 4.9627 C 131.6338 4.5412 130.9893 4.3305 130.2026 4.3305 C 129.5255 4.3305 128.9795 4.5096 128.5642 4.8679 
C 128.1493 5.205 127.9417 5.7003 127.9417 6.3535 C 127.9417 7.07 128.291 7.6284 128.9905 8.0288 C 129.6896 8.4292 130.7816 8.8612 132.2673 9.3248 
C 133.7531 9.8095 134.9546 10.2731 135.8719 10.7157 C 136.8117 11.1582 137.6199 11.8009 138.297 12.6438 C 138.9745 13.4868 139.3128 14.572 139.3128 15.8996 
C 139.3128 17.164 138.9745 18.3125 138.297 19.345 C 137.6419 20.3777 136.6806 21.1995 135.4135 21.8106 C 134.1464 22.4217 132.6497 22.7273 130.9237 22.7273 Z" fill="white"/>
<path d="M 144.3128 22.7273 H 158.8288 V 19.026 H 148.0648 V 13.2143 H 158.8288 V 9.513 H 148.0648 V 3.7013 H 158.8288 V 0 H 144.3128 V 22.7273 Z" fill="white"/>
<path d="M 184.7634 22.7273 H 188.8774 L 178.18 0 H 174.5264 L 163.8288 22.7273 H 167.9433 L 169.7865 18.7662 H 182.8869 L 184.7634 22.7273 Z
M 171.5311 15.0649 L 176.3367 4.8377 L 181.1424 15.0649 H 171.5311 Z" fill="white"/>
</svg>
